<svg width="526" height="242" viewBox="0 0 526 242" fill="none" xmlns="http://www.w3.org/2000/svg">
<rect width="526" height="242" fill="black"/>
<path d="M50.1113 159.356L131.501 159.712C133.348 159.712 134.271 158.958 134.271 157.45V138.118C134.271 136.61 133.348 135.856 131.501 135.856H76.8539V103.568H131.501C133.348 103.568 134.271 102.814 134.271 101.306V84.648C134.271 83.1399 133.348 82.3858 131.501 82.3858H50.1113V50L133.768 50.0979C163.316 50.0979 178.09 62.163 178.09 86.2932V98.4269C178.09 103.911 175.991 108.367 171.794 111.794L162.98 118.992L171.794 126.19C175.991 129.618 178.09 134.074 178.09 139.558V155.805C178.09 179.935 163.316 192 133.768 192L50 191.644L50.1113 159.356Z" fill="white"/>
<path d="M196.505 170.125L238.56 120.563L197.512 71.8223L200.786 66.2696H239.568L261.981 94.65L284.394 66.2696H323.176L326.449 71.8223L285.401 120.563L327.457 170.125L324.183 175.678H285.401L261.981 146.681L238.56 175.678H199.779L196.505 170.125Z" fill="white"/>
<path d="M348.022 159.356L429.411 159.712C431.258 159.712 432.181 158.958 432.181 157.45V138.118C432.181 136.61 431.258 135.856 429.411 135.856H374.764V103.568H429.411C431.258 103.568 432.181 102.814 432.181 101.306V84.648C432.181 83.1399 431.258 82.3858 429.411 82.3858H348.022V50L431.678 50.0979C461.226 50.0979 476 62.163 476 86.2932V98.4269C476 103.911 473.901 108.367 469.704 111.794L460.89 118.992L469.704 126.19C473.901 129.618 476 134.074 476 139.558V155.805C476 179.935 461.226 192 431.678 192L347.91 191.644L348.022 159.356Z" fill="white"/>
</svg>
